<svg xmlns="http://www.w3.org/2000/svg" data-name="Layer 1" style="fill: #ff8906;" viewBox="0 0 512 512"><path d="M25.921,348.45459c-1.50684-4.499-2.88428-9.10986-4.09412-13.70386a7.50016,7.50016,0,0,0-14.50555,3.8208c1.29346,4.90992,2.76587,9.83765,4.37665,14.64624a7.4997,7.4997,0,1,0,14.223-4.76318Zm10.84351,26.4502a7.49992,7.49992,0,1,0-13.47309,6.59326c2.22736,4.55175,4.63483,9.08764,7.15564,13.48217a7.49981,7.49981,0,0,0,13.01074-7.46386C41.10016,383.40649,38.84808,379.16284,36.76447,374.90479ZM9.86261,315.07471a7.49981,7.49981,0,0,0,6.49213-8.3877l-.03656-.28662c-.59027-4.63354-1.0387-9.33252-1.33319-13.96606a7.49989,7.49989,0,1,0-14.96967.95c.31439,4.94824.793,9.96509,1.4231,14.91162l.03656.28662A7.49979,7.49979,0,0,0,9.86261,315.07471ZM99.50629,451.77393c-3.75428-2.90235-7.466-5.96875-11.03162-9.11353a7.49974,7.49974,0,1,0-9.92273,11.24829c3.80756,3.35938,7.77118,6.63379,11.78088,9.73291a7.4999,7.4999,0,0,0,9.17347-11.86767ZM7.04565,270.81787a7.49263,7.49263,0,0,0,7.98676-6.97925c.31879-4.73828.79968-9.52612,1.42975-14.22827a7.50024,7.50024,0,0,0-14.8678-1.99072C.92157,252.64746.40741,257.76514.06641,262.8313A7.49961,7.49961,0,0,0,7.04565,270.81787Zm52.2259,140.49634a7.50038,7.50038,0,0,0-11.9228,9.10327c3.07624,4.02832,6.32709,8.00977,9.66205,11.83179a7.50026,7.50026,0,0,0,11.30225-9.8628C65.19153,418.80981,62.14948,415.08447,59.27155,411.31421ZM41.45532,158.64062a7.49973,7.49973,0,0,0-10.25574,2.70752c-2.55493,4.38721-4.99719,8.91675-7.25946,13.4607a7.5,7.5,0,1,0,13.428,6.68481c2.11725-4.25268,4.40314-8.4917,6.79444-12.59814A7.50016,7.50016,0,0,0,41.45532,158.64062Zm44.06317-42.89746a7.46863,7.46863,0,0,0,3.9798-1.79174c3.57135-3.11988,7.29511-6.16455,11.06763-9.05a7.49993,7.49993,0,1,0-9.11194-11.915c-4.03058,3.082-8.00873,6.33545-11.82465,9.6687a7.50058,7.50058,0,0,0,5.88916,13.08813Zm119.64142-53.823.43048-.05591c4.58649-.584,9.23877-1.03,13.82764-1.3252q.23942-.01575.47363-.04565a7.50006,7.50006,0,0,0-1.43646-14.92359c-4.89935.31519-9.86536.79126-14.81024,1.42115l-.38056.04956a7.49994,7.49994,0,1,0,1.89551,14.87964ZM248.011,60.56958c4.74157.31641,9.52929.79419,14.231,1.41992a7.50029,7.50029,0,0,0,1.97962-14.86938c-5.02619-.669-10.14447-1.17969-15.21216-1.51758a7.50015,7.50015,0,0,0-.99847,14.967Zm-86.0542,11.27466a7.49416,7.49416,0,0,0,1.44623-.332c4.499-1.51026,9.10858-2.89112,13.70068-4.103a7.50046,7.50046,0,0,0-3.83124-14.50342c-4.90723,1.29663-9.83356,2.772-14.64215,4.38672a7.50038,7.50038,0,0,0,3.32648,14.55176ZM121.56714,90.0127a7.47591,7.47591,0,0,0,2.78473-.9375c4.11462-2.36426,8.35638-4.61841,12.60724-6.70166a7.49963,7.49963,0,1,0-6.5998-13.46924c-4.545,2.227-9.08007,4.63672-13.47869,7.16308a7.50148,7.50148,0,0,0,4.68652,13.94532Zm14.25567,384.54687c-4.25061-2.11938-8.48834-4.408-12.59539-6.80273a7.50016,7.50016,0,0,0-7.55475,12.959c4.38769,2.55811,8.91455,5.00244,13.456,7.26807a7.5004,7.5004,0,0,0,6.69415-13.42432ZM12.91541,226.8418a7.49289,7.49289,0,0,0,9.20275-5.27344c1.24445-4.58569,2.65857-9.1919,4.20325-13.689A7.49988,7.49988,0,1,0,12.135,203.00732c-1.65143,4.80664-3.1629,9.73047-4.49359,14.63233A7.4997,7.4997,0,0,0,12.91541,226.8418Zm36.696-80.32325a7.50025,7.50025,0,0,0,10.52008-1.35473c2.90295-3.76123,5.96661-7.47412,9.10608-11.03613a7.49974,7.49974,0,1,0-11.25311-9.91724c-3.35334,3.804-6.6258,7.77075-9.72742,11.78857A7.50011,7.50011,0,0,0,49.61139,146.51855Zm409.777,140.48951a7.5,7.5,0,0,0-7.99536,6.96972c-.32489,4.73316-.81171,9.52076-1.4477,14.22657a7.50015,7.50015,0,1,0,14.86518,2.00878c.67968-5.03149,1.20025-10.14917,1.54687-15.2102A7.49877,7.49877,0,0,0,459.38837,287.00806Zm-20.37622,85.926A7.50212,7.50212,0,0,0,428.951,376.292c-2.12207,4.24951-4.41364,8.48609-6.81055,12.59131a7.5,7.5,0,0,0,12.954,7.5625c2.56061-4.38525,5.00824-8.91138,7.27606-13.45019A7.50086,7.50086,0,0,0,439.01215,372.93408Zm25.99108-123.71094-.07427-.57519a7.50024,7.50024,0,0,0-8.38483-6.47388l-.01935.00269a7.50007,7.50007,0,0,0-6.47089,8.40356l.0719.55689c.60163,4.72265,1.05616,9.51513,1.35108,14.24511a7.49992,7.49992,0,0,0,7.95221,7.019c.16461-.01.327-.02588.48828-.04639a7.49966,7.49966,0,0,0,6.53039-7.90527C466.13306,259.39844,465.64764,254.282,465.00323,249.22314ZM453.4621,330.97656a7.49683,7.49683,0,0,0-9.20972,5.26172c-1.25232,4.5896-2.67224,9.19287-4.22131,13.68237a7.50007,7.50007,0,1,0,14.18,4.89185c1.65546-4.79858,3.17407-9.72021,4.51251-14.627A7.49941,7.49941,0,0,0,453.4621,330.97656ZM401.04,0A111.086,111.086,0,0,0,290.07959,110.96c0,.07031.00256.13965.00269.21a175.16979,175.16979,0,0,0-56.42212-9.25976c-97.28907,0-176.43995,79.14648-176.43995,176.42968,0,97.29,79.15088,176.44043,176.43995,176.44043,97.28369,0,176.42968-79.15039,176.42968-176.44043a175.17549,175.17549,0,0,0-9.26056-56.4226c.07044.00024.14032.00268.21076.00268A110.96,110.96,0,1,0,401.04,0ZM233.66016,439.78027c-89.01807,0-161.43995-72.42187-161.43995-161.44043,0-89.01269,72.42188-161.42968,161.44-161.42968a160.13058,160.13058,0,0,1,57.66113,10.646,111.22011,111.22011,0,0,0,93.12225,93.12207,160.1349,160.1349,0,0,1,10.6463,57.66162C395.08984,367.3584,322.67285,439.78027,233.66016,439.78027ZM401.04,206.91992A95.96,95.96,0,1,1,497,110.96,96.06925,96.06925,0,0,1,401.04,206.91992Zm33.5-116.73535V64.46h9a7.5,7.5,0,1,0,0-15h-85a7.5,7.5,0,0,0,0,15h9V90.18457a17.54838,17.54838,0,0,0,8.75488,15.1582L386.032,110.96l-9.73657,5.61719a17.54646,17.54646,0,0,0-8.75537,15.1582V157.46h-9a7.5,7.5,0,0,0,0,15h85a7.5,7.5,0,0,0,0-15h-9V131.73535a17.54325,17.54325,0,0,0-8.75488-15.15723l-9.73725-5.61791,9.73725-5.61744A17.54719,17.54719,0,0,0,434.54,90.18457Zm-16.251,39.38574.00147.001a2.50457,2.50457,0,0,1,1.24951,2.16406V157.46h-37V131.73535a2.5062,2.5062,0,0,1,1.25049-2.165L401.04,119.61914Zm1.251-39.38574a2.50722,2.50722,0,0,1-1.251,2.166l-17.249,9.95117-17.249-9.95117a2.50825,2.50825,0,0,1-1.251-2.166V64.46h37ZM288.21729,203.9834a7.49974,7.49974,0,0,0-7.5-7.5h-94.1211a7.5,7.5,0,0,0,0,15H203.9707a43.51213,43.51213,0,0,1,42.85688,36.33887H186.59619a7.5,7.5,0,1,0,0,15H246.6889a43.5099,43.5099,0,0,1-42.71673,35.56054H187.37451a7.503,7.503,0,0,0-2.82324.55176l-.49756.20215a7.49987,7.49987,0,0,0-2.6001,12.1289L249.605,382.61719a7.50013,7.50013,0,1,0,10.84668-10.36133l-56.2334-58.874a58.52663,58.52663,0,0,0,57.65418-50.55957h18.84485a7.5,7.5,0,0,0,0-15H261.9715a58.36791,58.36791,0,0,0-18.9552-36.33887h37.701A7.49974,7.49974,0,0,0,288.21729,203.9834Zm53.63317,264.61792c-4.11969,2.35889-8.36419,4.60766-12.61682,6.68408a7.50049,7.50049,0,1,0,6.58325,13.47925c4.54633-2.22119,9.084-4.62549,13.48719-7.14746a7.49949,7.49949,0,1,0-7.45362-13.01587Zm-80.85357,27.05249-.14337.01831c-4.67078.595-9.4173,1.04712-14.10791,1.34326a7.49964,7.49964,0,1,0,.94512,14.96948c5.00708-.31591,10.07319-.79809,15.05829-1.4331l.14338-.01831a7.49994,7.49994,0,1,0-1.89551-14.87964Zm155.66693-84.39893a7.50193,7.50193,0,0,0-10.52142,1.34033c-2.90619,3.75464-5.97474,7.46436-9.12116,11.02613a7.49975,7.49975,0,1,0,11.24152,9.93042c3.36035-3.80274,6.63781-7.76514,9.74151-11.77442A7.50058,7.50058,0,0,0,416.66382,411.25488ZM302.77521,486.11426c-4.49176,1.50146-9.103,2.87646-13.70581,4.08594a7.5006,7.5006,0,0,0,2.84521,14.6958,7.6603,7.6603,0,0,0,.96784-.18824c4.91851-1.29321,9.847-2.76269,14.64849-4.36767a7.49985,7.49985,0,1,0-4.75573-14.22583Zm-84.62177,10.834c-4.73095-.32153-9.51849-.80542-14.22894-1.438a7.49968,7.49968,0,1,0-1.99774,14.86573c5.035.67675,10.15271,1.19433,15.21026,1.53759a7.4999,7.4999,0,1,0,1.01642-14.96533ZM376.7337,443.76855c-3.57794,3.11866-7.30529,6.158-11.07843,9.03467a7.50051,7.50051,0,1,0,9.096,11.92871c4.03143-3.07519,8.01422-6.32324,11.83814-9.65527a7.50012,7.50012,0,1,0-9.85566-11.30811ZM175.887,489.83594c-4.58966-1.24927-9.19427-2.666-13.685-4.2124a7.4996,7.4996,0,1,0-4.88367,14.18188c4.80163,1.65356,9.72394,3.1687,14.63074,4.50366a7.49965,7.49965,0,1,0,3.93792-14.47314Z"/></svg>